<?xml version="1.0" encoding="utf-8"?>
<!-- Generator: Adobe Illustrator 22.0.1, SVG Export Plug-In . SVG Version: 6.00 Build 0)  -->
<svg version="1.1" id="Layer_1" xmlns="http://www.w3.org/2000/svg" xmlns:xlink="http://www.w3.org/1999/xlink" x="0px" y="0px"
	 viewBox="0 0 232.4 57.9" style="enable-background:new 0 0 232.4 57.9;" xml:space="preserve">
<style type="text/css">
	.st0{fill:#FFD520;}
	.st1{fill:#EE632C;}
	.st2{fill:#FFE72D;}
</style>
<g>
	<g>
		<g>
			<g>
				<g>
					<g>
						<path d="M57.5,4.5c0,0,0,16.7,3.3,26.8c2.9,9.1,9.5,16.8,17.4,21.7c7.9-4.9,14.3-12.6,17.2-21.7c3.2-10.1,3.3-26.8,3.3-26.8
							H57.5z"/>
					</g>
				</g>
			</g>
			<g>
				<path class="st0" d="M78.2,52.2c-8-5.1-14.1-12.8-16.8-21.1c-2.8-8.7-3.2-22.7-3.2-25.9H98c-0.1,3.2-0.4,17.2-3.2,25.9
					C92.1,39.7,86.2,47.1,78.2,52.2z"/>
				<g>
					<path d="M64.9,28.6c0.1-0.1,0.4-0.4,0.7-0.6c1.7-1.4,4.7-4.1,8.2-3.8c3.2,0.3,4.5,2.8,4.5,2.8c-1.4,1.5-2.4,3.9-2.4,5.8
						c-0.1,1.9,0.5,13.5,0.5,13.5s0.1,3.1,0.2,4.9c0.6,0.4,1.1,0.8,1.7,1.1c0.5-0.3,0.9-0.6,1.4-0.9l0.3-12.9c0.1-2.1-0.2-5,1.5-6.8
						c0.1-0.1,0.7-0.6,0.7-0.6s0.5,0.5,0.7,0.6c0.1,0.1,0.2,0,0.3,0l4.1-3.5c0.1-0.1,0.1-0.2,0.1-0.2c-0.1-0.3-0.4-0.7-0.4-0.7
						s3.3-3.2,5.4-4.7c0.2-0.1,0.1-0.4-0.2-0.3c-1,0.4-2.1,0.3-2.7-0.3c-0.3-0.3-0.4-0.7-0.7-0.4c-2.4,1.6-4.4,2.2-4.4,2.2
						c-0.7-0.6-1.2-1.3-1.6-2c-2-4-1-9.3,1.9-12.6c0.9-1,1.7-1.7,2.8-2.3c0.1-0.1,0.1-0.3-0.1-0.3c-9,0.5-16.9,6.4-20.5,14.6
						c-1,2.4-1.8,5.1-1.9,7.4C64.7,28.7,64.7,28.8,64.9,28.6z"/>
					<g>
						<g>
							<path class="st0" d="M87.5,23.3c0.3-0.1,0.7,0,0.8,0.1c0.2,0.2-0.3,0.8-0.5,1.2c-0.6,0.9-0.6,1-1.2,1.9c0,0-0.1-0.4,0.1-0.8
								c0.1-0.5,0.4-0.9,0.5-1.1c0.2-0.3,0.4-0.6,0.4-0.7c0-0.2-0.7,0-0.9,0.1c-0.3,0-1,0.3-1.6-0.1C85.2,23.8,86.8,23.4,87.5,23.3z
								"/>
							<path class="st0" d="M78.1,31.3c0.2-0.1,1.4-0.8,2.3-0.7c0.7,0.1,1,0.3,1,0.3c-0.7,0.1-1.2,0-2.3,0.5
								c-0.5,0.3-1.2,0.8-1.6,0.4c-0.3-0.3-0.2-0.8,0-1.9c0.3-1.3,0.8-2,0.8-2s0,0.5-0.4,2.8C77.8,31.1,77.8,31.4,78.1,31.3z"/>
						</g>
						<path class="st0" d="M76.8,45.2c0,0-0.1,0.9,0.6,1.7c0.7,0.8,1.7,1.9,1.7,1.9s0.2-0.7-0.5-1.6C77.9,46.4,76.8,45.2,76.8,45.2z
							"/>
						<path class="st0" d="M76.6,39c0,0-0.1,0.9,0.7,1.7c0.7,0.8,1.9,2,1.9,2s0.1-0.7-0.6-1.6S76.6,39,76.6,39z"/>
						<path class="st0" d="M76.4,32.8c0,0-0.1,0.9,0.7,1.8c0.8,0.9,2.3,2.7,2.3,2.7s0.1-0.9-0.7-1.9S76.4,32.8,76.4,32.8z"/>
					</g>
				</g>
			</g>
		</g>
	</g>
	<g>
		<path class="st1" d="M45.2,4.7l0,0.1L45.2,4.7h-41c0.9,18.4,3.1,37.9,20.5,48l0,0.1c0,0,0,0,0.1,0c0,0,0,0,0.1,0l0-0.1
			C42,42.6,44.2,23.1,45.2,4.7z"/>
		<path class="st2" d="M42.5,11.3c0,0-0.1-0.1-0.1-0.1c0,0-0.1,0-0.1,0l-4,2.4c-0.5,0.3-0.9,0.7-1.1,1.3c-0.4,1.2,0.2,2.5,1.4,3.4
			l-0.7,1.8L37.6,20c0-1-0.5-2-1.4-2.3c-1.2-0.4-2.5,0.3-2.9,1.6c-0.5,1.3,0.1,2.7,1.3,3.1c0.9,0.3,1.8,0,2.5-0.8l0.3,0.1l-3.9,9.7
			h-5.7l0,0c0,0-1.4-3.2-1.9-11h0.8c0.4,1.2,1.5,2,2.8,2c1.6,0,2.9-1.3,2.9-2.9c0-1.6-1.3-2.9-2.9-2.9c-1.3,0-2.4,0.8-2.8,2h-0.9
			l-0.1-1.8c1.5-0.5,2.7-1.8,2.7-3.5c0-0.7-0.2-1.4-0.6-2l-3-5h0c0,0-0.1-0.1-0.1-0.1c-0.1,0-0.1,0-0.1,0.1l-3,5
			c-0.4,0.6-0.6,1.3-0.6,2c0,1.7,1.1,3,2.7,3.5l-0.1,1.8h-0.9c-0.4-1.2-1.5-2-2.8-2c-1.6,0-2.9,1.3-2.9,2.9c0,1.6,1.3,2.9,2.9,2.9
			c1.3,0,2.4-0.8,2.8-2h0.8c-0.4,7.8-1.9,11-1.9,11l0,0h-5.5l-3.9-9.7l0.3-0.1c0.6,0.8,1.6,1.1,2.5,0.8c1.2-0.4,1.7-1.8,1.3-3.1
			c-0.5-1.3-1.8-2-2.9-1.6c-0.9,0.3-1.4,1.3-1.4,2.3l-0.3,0.2l-0.7-1.8c1.2-0.9,1.8-2.2,1.4-3.4c-0.2-0.6-0.6-1-1.1-1.3l-4-2.4
			c0,0,0,0-0.1,0c-0.1,0-0.1,0-0.1,0.1c0,0,0,0,0,0.1c0,0,0,0,0,0c0.4,1.1,1.9,5.1,2.6,7.4c0.8,2.7,4.6,16.2,4.9,20.9H35v0l0,0
			c0.3-4.7,4-18.2,4.9-20.9c0.7-2.3,2.2-6.3,2.6-7.4C42.5,11.4,42.5,11.4,42.5,11.3C42.5,11.4,42.5,11.4,42.5,11.3z"/>
	</g>
	<g>
		<path d="M114.3,17.2l-4.1-12.7h2.8l1.9,6.1l1,4h0.1l1-4l1.9-6.1h2.7l-4.1,12.7H114.3z"/>
		<path d="M123.2,17.2V4.5h8.6V7h-5.9v2.6h5V12h-5v2.8h5.9v2.5H123.2z"/>
		<path d="M133.5,15.4l1.8-1.8c0.9,1,1.9,1.5,3.2,1.5c1.3,0,2-0.6,2-1.5c0-0.7-0.3-1.2-1.5-1.4l-1.3-0.2c-2.7-0.3-3.9-1.7-3.9-3.8
			c0-2.3,1.8-3.9,4.8-3.9c1.9,0,3.4,0.6,4.4,1.8l-1.8,1.9c-0.6-0.7-1.4-1.2-2.7-1.2c-1.2,0-1.8,0.5-1.8,1.2c0,0.9,0.5,1.2,1.5,1.4
			l1.3,0.2c2.6,0.4,3.9,1.6,3.9,3.8c0,2.4-1.8,4.1-4.9,4.1C136.1,17.4,134.6,16.6,133.5,15.4z"/>
		<path d="M150.4,7v10.2h-2.8V7h-3.4V4.5h9.6V7H150.4z"/>
		<path d="M155.8,17.2V4.5h8.4V7h-5.7v2.8h4.8v2.4h-4.8v5H155.8z"/>
		<path d="M165.4,10.9c0-4.3,2.2-6.6,5.6-6.6c3.4,0,5.6,2.3,5.6,6.6c0,4.3-2.2,6.6-5.6,6.6C167.6,17.4,165.4,15.2,165.4,10.9z
			 M173.6,11.8V9.9c0-2-1-3.2-2.7-3.2c-1.7,0-2.7,1.1-2.7,3.2v1.9c0,2,1,3.2,2.7,3.2C172.6,15,173.6,13.8,173.6,11.8z"/>
		<path d="M178.4,17.2V4.5h2.8v10.2h4.8v2.5H178.4z"/>
		<path d="M188,4.5h4.8c3.4,0,5.6,2.1,5.6,6.4s-2.2,6.4-5.6,6.4H188V4.5z M192.8,14.8c1.6,0,2.7-0.9,2.7-2.9v-2c0-2-1-2.9-2.7-2.9
			h-2v7.8H192.8z"/>
		<path d="M204.2,10.9c0-4.3,2.2-6.6,5.6-6.6c3.4,0,5.6,2.3,5.6,6.6c0,4.3-2.2,6.6-5.6,6.6C206.4,17.4,204.2,15.2,204.2,10.9z
			 M212.5,11.8V9.9c0-2-1-3.2-2.7-3.2c-1.7,0-2.7,1.1-2.7,3.2v1.9c0,2,1,3.2,2.7,3.2C211.5,15,212.5,13.8,212.5,11.8z"/>
		<path d="M225.8,15.2L225.8,15.2c-0.3,1.3-1.4,2.2-3.3,2.2c-2.9,0-5.2-2.3-5.2-6.5c0-4.3,2.3-6.6,5.7-6.6c2.3,0,3.9,1,4.9,2.9
			l-2.3,1.3c-0.4-1-1.2-1.8-2.6-1.8c-1.7,0-2.8,1-2.8,3.1v2c0,2.1,1.1,3.1,2.8,3.1c1.4,0,2.5-0.7,2.5-1.9v-0.6h-2.4v-2.3h5v7.1h-2.3
			V15.2z"/>
		<path d="M117.3,24.9v10.2h-2.8V24.9h-3.4v-2.5h9.6v2.5H117.3z"/>
		<path d="M122.6,35.2V22.5h8.6v2.5h-5.9v2.6h5V30h-5v2.8h5.9v2.5H122.6z"/>
		<path d="M133.7,35.2V22.5h2.8v10.2h4.8v2.5H133.7z"/>
		<path d="M143.3,35.2V22.5h8.6v2.5h-5.9v2.6h5V30h-5v2.8h5.9v2.5H143.3z"/>
		<path d="M163.9,26.8L163.9,26.8l-1,1.9l-2.5,4.5l-2.4-4.5l-1-2H157v8.5h-2.6V22.5h2.9l3.1,5.9h0l3.1-5.9h2.9v12.7h-2.6V26.8z"/>
		<path d="M177.1,35.2l-0.9-3h-4.2l-0.9,3h-2.8l4.2-12.7h3.4l4.1,12.7H177.1z M174.1,25L174.1,25l-1.5,4.8h2.9L174.1,25z"/>
		<path d="M184.5,35.2h-2.8V22.5h6c2.3,0,3.8,1.6,3.8,4.1c0,1.7-0.8,3.1-2.3,3.7l2.5,5h-3.1l-2.2-4.7h-2V35.2z M187.4,28.2
			c0.8,0,1.3-0.4,1.3-1.3v-0.8c0-0.8-0.5-1.3-1.3-1.3h-2.9v3.3H187.4z"/>
		<path d="M198.4,29.6l-1.7,2v3.5H194V22.5h2.8v6h0.1l1.8-2.5l2.9-3.6h3.1l-4.3,5.2l4.7,7.5h-3.3L198.4,29.6z"/>
		<g>
			<path d="M114.5,44.8h-1.1v-1.2h1.1v-1.2c0-1.2,0.6-1.9,1.8-1.9h1.2v1.2H116v1.8h1.5v1.2H116v6h-1.5V44.8z"/>
			<path d="M123.5,43.5h1.5l-3.1,8.7c-0.4,1-0.8,1.4-1.9,1.4h-0.9v-1.2h1.2l0.4-1.2l-2.6-7.6h1.5l1.5,4.3l0.4,1.6h0.1l0.5-1.6
				L123.5,43.5z"/>
			<path d="M127.8,50.8c-1,0-1.6-0.6-1.6-1.5v-8.9h1.5v9.1h1v1.2H127.8z"/>
			<path d="M130.2,40.4h1.5v6.4h0.1l1-1.3l1.8-2h1.8l-2.5,2.8l2.9,4.5h-1.8l-2.1-3.5l-1,1.1v2.4h-1.5V40.4z"/>
			<path d="M137.1,47.2c0-2.3,1.3-3.8,3.3-3.8c2.1,0,3.2,1.6,3.2,3.6v0.6h-5v0.2c0,1.1,0.7,1.9,1.9,1.9c0.9,0,1.5-0.4,1.9-1.1
				l0.9,0.9c-0.5,0.9-1.6,1.5-3,1.5C138.4,51,137.1,49.5,137.1,47.2z M138.7,46.4L138.7,46.4l3.4,0.1v-0.1c0-1.1-0.6-1.9-1.6-1.9
				C139.4,44.5,138.7,45.3,138.7,46.4z"/>
			<path d="M144.7,49.6l1-0.9c0.5,0.6,1.2,1,2.1,1c0.9,0,1.3-0.4,1.3-1c0-0.5-0.3-0.8-1-0.9l-0.7-0.1c-1.5-0.2-2.4-0.8-2.4-2.2
				c0-1.4,1.1-2.2,2.7-2.2c1.3,0,2.1,0.4,2.7,1.2l-0.9,0.9c-0.4-0.4-1-0.8-1.8-0.8c-0.8,0-1.2,0.4-1.2,0.9c0,0.6,0.4,0.8,1.1,0.9
				l0.7,0.1c1.6,0.2,2.3,0.9,2.3,2.1c0,1.4-1.1,2.3-2.9,2.3C146.3,51,145.4,50.5,144.7,49.6z"/>
			<path d="M152.3,40.4h1.5v6.4h0.1l1-1.3l1.8-2h1.8l-2.5,2.8l2.9,4.5h-1.8l-2.1-3.5l-1,1.1v2.4h-1.5V40.4z"/>
			<path d="M159.2,47.2c0-2.3,1.3-3.8,3.3-3.8s3.3,1.5,3.3,3.8c0,2.3-1.3,3.8-3.3,3.8S159.2,49.5,159.2,47.2z M164.2,47.8v-1.2
				c0-1.3-0.7-1.9-1.7-1.9s-1.7,0.6-1.7,1.9v1.2c0,1.3,0.7,1.9,1.7,1.9S164.2,49.1,164.2,47.8z"/>
			<path d="M167.5,50.8v-7.3h1.5v1.2h0.1c0.3-0.8,0.8-1.4,1.9-1.4c1,0,1.8,0.5,2.2,1.5h0c0.3-0.8,1-1.5,2.2-1.5c1.4,0,2.3,1,2.3,2.8
				v4.6h-1.5v-4.4c0-1.1-0.4-1.7-1.3-1.7c-0.8,0-1.5,0.4-1.5,1.2v4.9h-1.5v-4.4c0-1.1-0.4-1.7-1.3-1.7c-0.8,0-1.5,0.4-1.5,1.2v4.9
				H167.5z"/>
			<path d="M179.9,50.8v-7.3h1.5v1.2h0.1c0.3-0.8,0.8-1.4,1.9-1.4c1,0,1.8,0.5,2.2,1.5h0c0.3-0.8,1-1.5,2.2-1.5c1.4,0,2.3,1,2.3,2.8
				v4.6h-1.5v-4.4c0-1.1-0.4-1.7-1.3-1.7c-0.8,0-1.5,0.4-1.5,1.2v4.9h-1.5v-4.4c0-1.1-0.4-1.7-1.3-1.7c-0.8,0-1.5,0.4-1.5,1.2v4.9
				H179.9z"/>
			<path d="M196.7,49.6L196.7,49.6c-0.3,0.7-0.9,1.4-2.1,1.4c-1.5,0-2.4-1-2.4-2.8v-4.6h1.5V48c0,1.1,0.5,1.7,1.4,1.7
				c0.8,0,1.6-0.4,1.6-1.3v-4.9h1.5v7.3h-1.5V49.6z"/>
			<path d="M200.4,50.8v-7.3h1.5v1.2h0.1c0.3-0.8,0.9-1.4,2-1.4c1.5,0,2.4,1,2.4,2.8v4.6h-1.5v-4.4c0-1.1-0.4-1.7-1.4-1.7
				c-0.8,0-1.6,0.4-1.6,1.3v4.9H200.4z"/>
			<path d="M208,47.2c0-2.3,1.3-3.8,3.3-3.8c2.1,0,3.2,1.6,3.2,3.6v0.6h-5v0.2c0,1.1,0.7,1.9,1.9,1.9c0.9,0,1.5-0.4,1.9-1.1l0.9,0.9
				c-0.5,0.9-1.6,1.5-3,1.5C209.3,51,208,49.5,208,47.2z M209.6,46.4L209.6,46.4l3.4,0.1v-0.1c0-1.1-0.6-1.9-1.6-1.9
				C210.3,44.5,209.6,45.3,209.6,46.4z"/>
		</g>
	</g>
</g>
</svg>
